<?xml version="1.0" encoding="utf-8"?>
<svg class="svg-icon" style="vertical-align: middle;fill: currentColor;overflow: hidden;" viewBox="0 0 1024 1024" version="1.1" xmlns="http://www.w3.org/2000/svg">
    <path d="M 260.376 589.254 C 250.735 598.108 245.916 610.495 245.916 626.43 C 245.916 640.418 251.156 651.833 261.642 660.687 C 272.121 669.539 285.973 673.962 303.199 673.962 C 327.16 673.962 346.904 665.997 362.444 650.064 C 377.984 634.13 385.753 614.127 385.753 590.053 L 385.753 561.899 L 313.026 571.193 C 287.564 574.383 270.018 580.401 260.376 589.254 L 260.376 589.254 Z M 829.005 92.92 L 190.046 92.92 C 119.466 92.92 62.255 147.027 62.255 213.775 L 62.255 757.624 C 62.255 824.373 119.467 878.48 190.046 878.48 L 829.005 878.48 C 899.585 878.48 956.796 824.373 956.796 757.624 L 956.796 213.775 C 956.797 147.026 899.584 92.919 829.005 92.919 L 829.005 92.92 Z M 440.225 709.283 L 385.753 709.283 L 385.753 663.87 L 384.347 663.87 C 362.82 698.749 331.09 716.188 289.16 716.188 C 259.014 716.188 235.06 708.484 217.277 693.081 C 199.488 677.684 190.6 656.879 190.6 630.678 C 190.6 575.803 224.95 543.843 293.651 534.815 L 385.751 522.597 C 385.751 474.623 364.78 450.633 322.851 450.633 C 285.6 450.633 251.62 462.495 220.925 486.219 L 220.925 436.027 C 251.812 417.797 287.472 408.677 327.905 408.677 C 402.778 408.677 440.221 445.853 440.221 520.21 L 440.221 709.282 L 440.225 709.283 Z M 784.617 672.239 C 758.88 701.54 724.573 716.189 681.707 716.189 C 641.273 716.189 610.481 700.078 589.325 667.859 L 588.2 667.859 L 588.2 709.281 L 533.167 709.281 L 533.167 274.578 L 588.2 274.578 L 588.2 466.304 L 589.325 466.304 C 613.656 427.889 649.227 408.68 696.025 408.68 C 734.963 408.68 765.895 421.648 788.828 447.582 C 811.76 473.519 823.229 508.971 823.229 553.936 C 823.229 603.503 810.354 642.939 784.617 672.24 L 784.617 672.239 Z M 680.863 451.697 C 653.913 451.697 631.676 460.816 614.175 479.047 C 596.675 497.285 587.926 520.476 587.926 548.624 L 587.926 588.458 C 587.926 612.181 596.066 632.231 612.354 648.602 C 628.641 664.984 649.042 673.165 673.566 673.165 C 702.766 673.165 725.603 662.547 742.081 641.302 C 758.547 620.055 766.79 590.674 766.79 553.137 C 766.79 522.163 759.11 497.508 743.761 479.18 C 728.414 460.858 707.443 451.697 680.863 451.697 L 680.863 451.697 Z" fill="" style=""/>
</svg>